<mxfile host="app.diagrams.net" agent="Mozilla/5.0 (Windows NT 10.0; Win64; x64) AppleWebKit/537.36 (KHTML, like Gecko) Chrome/134.0.0.0 Safari/537.36 OPR/119.0.0.0" version="27.2.0">
  <diagram name="Страница — 1" id="N1IuYiv_zuJ78dFiPyRW">
    <mxGraphModel dx="2327" dy="794" grid="1" gridSize="10" guides="1" tooltips="1" connect="1" arrows="1" fold="1" page="1" pageScale="1" pageWidth="827" pageHeight="1169" math="0" shadow="0">
      <root>
        <mxCell id="0" />
        <mxCell id="1" parent="0" />
        <mxCell id="3muh-CZbJUkdKNIh3Zcy-10" value="" style="edgeStyle=orthogonalEdgeStyle;rounded=0;orthogonalLoop=1;jettySize=auto;html=1;" parent="1" source="k8U7lrzO0omUZ5U4HMTi-1" target="3muh-CZbJUkdKNIh3Zcy-9" edge="1">
          <mxGeometry relative="1" as="geometry" />
        </mxCell>
        <mxCell id="k8U7lrzO0omUZ5U4HMTi-1" value="Сайт банка" style="ellipse;whiteSpace=wrap;html=1;fillColor=#1ba1e2;fontColor=#ffffff;strokeColor=#006EAF;" parent="1" vertex="1">
          <mxGeometry x="-15" y="190" width="120" height="80" as="geometry" />
        </mxCell>
        <mxCell id="3muh-CZbJUkdKNIh3Zcy-2" value="" style="edgeStyle=orthogonalEdgeStyle;rounded=0;orthogonalLoop=1;jettySize=auto;html=1;" parent="1" source="3muh-CZbJUkdKNIh3Zcy-1" target="k8U7lrzO0omUZ5U4HMTi-1" edge="1">
          <mxGeometry relative="1" as="geometry" />
        </mxCell>
        <mxCell id="3muh-CZbJUkdKNIh3Zcy-3" value="" style="edgeStyle=orthogonalEdgeStyle;rounded=0;orthogonalLoop=1;jettySize=auto;html=1;" parent="1" source="3muh-CZbJUkdKNIh3Zcy-1" target="k8U7lrzO0omUZ5U4HMTi-1" edge="1">
          <mxGeometry relative="1" as="geometry" />
        </mxCell>
        <mxCell id="3muh-CZbJUkdKNIh3Zcy-4" value="" style="edgeStyle=orthogonalEdgeStyle;rounded=0;orthogonalLoop=1;jettySize=auto;html=1;" parent="1" source="3muh-CZbJUkdKNIh3Zcy-1" target="k8U7lrzO0omUZ5U4HMTi-1" edge="1">
          <mxGeometry relative="1" as="geometry" />
        </mxCell>
        <mxCell id="3muh-CZbJUkdKNIh3Zcy-5" value="" style="edgeStyle=orthogonalEdgeStyle;rounded=0;orthogonalLoop=1;jettySize=auto;html=1;" parent="1" source="3muh-CZbJUkdKNIh3Zcy-1" target="k8U7lrzO0omUZ5U4HMTi-1" edge="1">
          <mxGeometry relative="1" as="geometry" />
        </mxCell>
        <mxCell id="QlNZmkylExe61UYcEt8i-1" value="Заявка на депозит" style="edgeLabel;html=1;align=center;verticalAlign=middle;resizable=0;points=[];" vertex="1" connectable="0" parent="3muh-CZbJUkdKNIh3Zcy-5">
          <mxGeometry x="0.3509" relative="1" as="geometry">
            <mxPoint as="offset" />
          </mxGeometry>
        </mxCell>
        <mxCell id="3muh-CZbJUkdKNIh3Zcy-24" style="edgeStyle=orthogonalEdgeStyle;rounded=0;orthogonalLoop=1;jettySize=auto;html=1;entryX=0;entryY=0.5;entryDx=0;entryDy=0;exitX=1;exitY=1;exitDx=0;exitDy=0;exitPerimeter=0;" parent="1" source="3muh-CZbJUkdKNIh3Zcy-1" target="3muh-CZbJUkdKNIh3Zcy-18" edge="1">
          <mxGeometry relative="1" as="geometry" />
        </mxCell>
        <mxCell id="3muh-CZbJUkdKNIh3Zcy-25" value="Операции, заявки&lt;div&gt;(МVP - заявка на депозит)&lt;/div&gt;" style="edgeLabel;html=1;align=center;verticalAlign=middle;resizable=0;points=[];" parent="3muh-CZbJUkdKNIh3Zcy-24" vertex="1" connectable="0">
          <mxGeometry x="0.08" y="-2" relative="1" as="geometry">
            <mxPoint as="offset" />
          </mxGeometry>
        </mxCell>
        <mxCell id="3muh-CZbJUkdKNIh3Zcy-1" value="Клиент&lt;div&gt;&lt;br&gt;&lt;/div&gt;" style="shape=umlActor;verticalLabelPosition=bottom;verticalAlign=top;html=1;outlineConnect=0;" parent="1" vertex="1">
          <mxGeometry x="220" y="30" width="30" height="60" as="geometry" />
        </mxCell>
        <mxCell id="QlNZmkylExe61UYcEt8i-6" style="edgeStyle=orthogonalEdgeStyle;rounded=0;orthogonalLoop=1;jettySize=auto;html=1;exitX=1;exitY=1;exitDx=0;exitDy=0;exitPerimeter=0;" edge="1" parent="1" source="3muh-CZbJUkdKNIh3Zcy-6" target="3muh-CZbJUkdKNIh3Zcy-20">
          <mxGeometry relative="1" as="geometry" />
        </mxCell>
        <mxCell id="QlNZmkylExe61UYcEt8i-9" value="Отправка писем&lt;div&gt;с информацией о ставках&lt;br&gt;&lt;div&gt;&lt;br&gt;&lt;/div&gt;&lt;/div&gt;" style="edgeLabel;html=1;align=center;verticalAlign=middle;resizable=0;points=[];" vertex="1" connectable="0" parent="QlNZmkylExe61UYcEt8i-6">
          <mxGeometry x="0.2785" y="2" relative="1" as="geometry">
            <mxPoint x="14" y="-28" as="offset" />
          </mxGeometry>
        </mxCell>
        <mxCell id="QlNZmkylExe61UYcEt8i-7" style="edgeStyle=orthogonalEdgeStyle;rounded=0;orthogonalLoop=1;jettySize=auto;html=1;exitX=0;exitY=1;exitDx=0;exitDy=0;exitPerimeter=0;entryX=0.5;entryY=0;entryDx=0;entryDy=0;" edge="1" parent="1" source="3muh-CZbJUkdKNIh3Zcy-6" target="3muh-CZbJUkdKNIh3Zcy-19">
          <mxGeometry relative="1" as="geometry">
            <mxPoint x="490" y="420" as="targetPoint" />
            <Array as="points">
              <mxPoint x="570" y="280" />
              <mxPoint x="561" y="280" />
              <mxPoint x="561" y="420" />
              <mxPoint x="470" y="420" />
            </Array>
          </mxGeometry>
        </mxCell>
        <mxCell id="3muh-CZbJUkdKNIh3Zcy-6" value="Сотрудник&lt;div&gt;&amp;nbsp;фронт-офиса&lt;/div&gt;" style="shape=umlActor;verticalLabelPosition=bottom;verticalAlign=top;html=1;outlineConnect=0;" parent="1" vertex="1">
          <mxGeometry x="520" y="10" width="30" height="60" as="geometry" />
        </mxCell>
        <mxCell id="3muh-CZbJUkdKNIh3Zcy-23" style="edgeStyle=orthogonalEdgeStyle;rounded=0;orthogonalLoop=1;jettySize=auto;html=1;" parent="1" source="3muh-CZbJUkdKNIh3Zcy-9" target="3muh-CZbJUkdKNIh3Zcy-19" edge="1">
          <mxGeometry relative="1" as="geometry" />
        </mxCell>
        <mxCell id="QlNZmkylExe61UYcEt8i-4" value="Направляет заявку&amp;nbsp;&lt;div&gt;на депозит&lt;/div&gt;" style="edgeLabel;html=1;align=center;verticalAlign=middle;resizable=0;points=[];" vertex="1" connectable="0" parent="3muh-CZbJUkdKNIh3Zcy-23">
          <mxGeometry x="-0.232" y="-1" relative="1" as="geometry">
            <mxPoint as="offset" />
          </mxGeometry>
        </mxCell>
        <mxCell id="3muh-CZbJUkdKNIh3Zcy-9" value="&lt;span style=&quot;color: rgb(255, 255, 255);&quot;&gt;Система кол-центра (React.js, Java, Postgres) [внутренняя]&lt;/span&gt;" style="ellipse;whiteSpace=wrap;html=1;fillColor=#1ba1e2;fontColor=#ffffff;strokeColor=#006EAF;" parent="1" vertex="1">
          <mxGeometry x="140" y="380" width="150" height="100" as="geometry" />
        </mxCell>
        <mxCell id="3muh-CZbJUkdKNIh3Zcy-16" style="edgeStyle=orthogonalEdgeStyle;rounded=0;orthogonalLoop=1;jettySize=auto;html=1;exitX=0.5;exitY=0.5;exitDx=0;exitDy=0;exitPerimeter=0;entryX=0;entryY=0.5;entryDx=0;entryDy=0;" parent="1" source="3muh-CZbJUkdKNIh3Zcy-11" target="3muh-CZbJUkdKNIh3Zcy-9" edge="1">
          <mxGeometry relative="1" as="geometry" />
        </mxCell>
        <mxCell id="3muh-CZbJUkdKNIh3Zcy-17" value="Ведение обращений" style="edgeLabel;html=1;align=center;verticalAlign=middle;resizable=0;points=[];" parent="3muh-CZbJUkdKNIh3Zcy-16" vertex="1" connectable="0">
          <mxGeometry x="-0.3342" y="-3" relative="1" as="geometry">
            <mxPoint as="offset" />
          </mxGeometry>
        </mxCell>
        <mxCell id="3muh-CZbJUkdKNIh3Zcy-11" value="Клиент&lt;div&gt;&lt;br&gt;&lt;/div&gt;" style="shape=umlActor;verticalLabelPosition=bottom;verticalAlign=top;html=1;outlineConnect=0;" parent="1" vertex="1">
          <mxGeometry x="-170" y="310" width="30" height="60" as="geometry" />
        </mxCell>
        <mxCell id="QlNZmkylExe61UYcEt8i-5" style="edgeStyle=orthogonalEdgeStyle;rounded=0;orthogonalLoop=1;jettySize=auto;html=1;" edge="1" parent="1" source="3muh-CZbJUkdKNIh3Zcy-18" target="3muh-CZbJUkdKNIh3Zcy-19">
          <mxGeometry relative="1" as="geometry" />
        </mxCell>
        <mxCell id="3muh-CZbJUkdKNIh3Zcy-18" value="Интернет-банк (ASP.NET MVC, MS SQL)" style="ellipse;whiteSpace=wrap;html=1;fillColor=#1ba1e2;fontColor=#ffffff;strokeColor=#006EAF;" parent="1" vertex="1">
          <mxGeometry x="340" y="160" width="120" height="80" as="geometry" />
        </mxCell>
        <mxCell id="QlNZmkylExe61UYcEt8i-12" style="edgeStyle=orthogonalEdgeStyle;rounded=0;orthogonalLoop=1;jettySize=auto;html=1;entryX=0.5;entryY=0;entryDx=0;entryDy=0;" edge="1" parent="1" source="3muh-CZbJUkdKNIh3Zcy-19" target="QlNZmkylExe61UYcEt8i-10">
          <mxGeometry relative="1" as="geometry" />
        </mxCell>
        <mxCell id="3muh-CZbJUkdKNIh3Zcy-19" value="АБС (Delphi-клиент, Oracle)" style="ellipse;whiteSpace=wrap;html=1;fillColor=#1ba1e2;fontColor=#ffffff;strokeColor=#006EAF;" parent="1" vertex="1">
          <mxGeometry x="410" y="450" width="120" height="80" as="geometry" />
        </mxCell>
        <mxCell id="QlNZmkylExe61UYcEt8i-8" style="edgeStyle=orthogonalEdgeStyle;rounded=0;orthogonalLoop=1;jettySize=auto;html=1;entryX=1;entryY=0.5;entryDx=0;entryDy=0;" edge="1" parent="1" source="3muh-CZbJUkdKNIh3Zcy-20" target="3muh-CZbJUkdKNIh3Zcy-19">
          <mxGeometry relative="1" as="geometry" />
        </mxCell>
        <mxCell id="3muh-CZbJUkdKNIh3Zcy-20" value="&lt;div&gt;Сотрудника&lt;/div&gt;&lt;div&gt;&amp;nbsp;бэк-офиса (депозиты)&lt;/div&gt;" style="shape=umlActor;verticalLabelPosition=bottom;verticalAlign=top;html=1;outlineConnect=0;" parent="1" vertex="1">
          <mxGeometry x="710" y="170" width="30" height="60" as="geometry" />
        </mxCell>
        <mxCell id="3muh-CZbJUkdKNIh3Zcy-22" value="Система партнерского колл-центра [внешняя]" style="rounded=0;whiteSpace=wrap;html=1;" parent="1" vertex="1">
          <mxGeometry x="-50" y="610" width="120" height="60" as="geometry" />
        </mxCell>
        <mxCell id="QlNZmkylExe61UYcEt8i-3" style="edgeStyle=orthogonalEdgeStyle;rounded=0;orthogonalLoop=1;jettySize=auto;html=1;exitX=0.5;exitY=1;exitDx=0;exitDy=0;entryX=0.367;entryY=0.08;entryDx=0;entryDy=0;entryPerimeter=0;" edge="1" parent="1" source="3muh-CZbJUkdKNIh3Zcy-9" target="3muh-CZbJUkdKNIh3Zcy-22">
          <mxGeometry relative="1" as="geometry" />
        </mxCell>
        <mxCell id="QlNZmkylExe61UYcEt8i-13" style="edgeStyle=orthogonalEdgeStyle;rounded=0;orthogonalLoop=1;jettySize=auto;html=1;entryX=0.5;entryY=0;entryDx=0;entryDy=0;" edge="1" parent="1" source="QlNZmkylExe61UYcEt8i-10" target="QlNZmkylExe61UYcEt8i-11">
          <mxGeometry relative="1" as="geometry" />
        </mxCell>
        <mxCell id="QlNZmkylExe61UYcEt8i-14" value="Отправка смс" style="edgeLabel;html=1;align=center;verticalAlign=middle;resizable=0;points=[];" vertex="1" connectable="0" parent="QlNZmkylExe61UYcEt8i-13">
          <mxGeometry x="-0.0133" y="2" relative="1" as="geometry">
            <mxPoint as="offset" />
          </mxGeometry>
        </mxCell>
        <mxCell id="QlNZmkylExe61UYcEt8i-10" value="СМС-шлюз" style="rounded=0;whiteSpace=wrap;html=1;" vertex="1" parent="1">
          <mxGeometry x="410" y="580" width="120" height="60" as="geometry" />
        </mxCell>
        <mxCell id="QlNZmkylExe61UYcEt8i-11" value="Телеком-оператор" style="rounded=0;whiteSpace=wrap;html=1;" vertex="1" parent="1">
          <mxGeometry x="410" y="700" width="120" height="60" as="geometry" />
        </mxCell>
      </root>
    </mxGraphModel>
  </diagram>
</mxfile>
